<svg xmlns="http://www.w3.org/2000/svg" width="396.926" height="350.578" viewBox="0 0 396.926 350.578">
  <path fill="#FFF" d="M22.665 47.935h126.667v25.261H22.665z"/>
  <path fill="none" stroke="#243659" stroke-miterlimit="10" stroke-width="4" d="M209.334 264.105H102.067V97.601"/>
  <path fill="#FFF" d="M93.247 88.782h223.724v166.503H93.247z"/>
  <path fill="#FFF3CC" d="M93.247 88.782h223.724v41.091H93.247z"/>
  <path fill="#F2DFAA" d="M93.247 88.782h223.724v9.846H93.247z"/>
  <path fill="none" stroke="#243659" stroke-miterlimit="10" stroke-width="4" d="M93.247 88.782h223.724v166.503H93.247zM205.109 86.828v-8.876"/>
  <path fill="#FFF" d="M90.838 166.768l-19.307 12.011 1.264-9.033.42-3.005-3.009-.403c-8.139-1.087-13.191-3.382-16.302-7.029-3.129-3.665-4.781-9.26-4.781-18.082 0-10.913 2.511-16.927 7.382-20.486 5.161-3.769 13.689-5.379 27.308-5.379s22.147 1.61 27.308 5.379c4.873 3.559 7.382 9.573 7.382 20.486 0 9.965-2.787 16.02-7.029 19.661-4.333 3.718-10.755 5.423-19.042 5.423h-.862l-.732.457z"/>
  <path fill="none" stroke="#243659" stroke-miterlimit="10" stroke-width="4" d="M82.019 158.621l-19.307 12.01 1.264-9.032.42-3.004-3.009-.404c-8.14-1.087-13.19-3.382-16.302-7.029-3.129-3.665-4.781-9.26-4.781-18.082 0-10.913 2.511-16.927 7.382-20.485 5.162-3.768 13.689-5.379 27.309-5.379 13.619 0 22.146 1.612 27.308 5.379 4.872 3.559 7.382 9.573 7.382 20.485 0 9.966-2.787 16.02-7.029 19.661-4.333 3.718-10.755 5.423-19.042 5.423h-.864l-.731.457z"/>
  <path fill="#FFF" d="M283.005 95.54l-23.457 14.592 1.536-10.974.51-3.65-3.656-.49c-9.889-1.32-16.026-4.109-19.807-8.54-3.801-4.453-5.809-11.25-5.809-21.968 0-13.259 3.051-20.564 8.969-24.889 6.271-4.577 16.631-6.535 33.178-6.535s26.907 1.958 33.178 6.535c5.92 4.324 8.97 11.63 8.97 24.889 0 12.107-3.388 19.462-8.539 23.886-5.267 4.517-13.067 6.588-23.136 6.588h-1.049l-.888.556z"/>
  <path fill="none" stroke="#243659" stroke-miterlimit="10" stroke-width="4" d="M277.918 86.806l-23.456 14.591 1.536-10.973.51-3.65-3.656-.491c-9.889-1.32-16.026-4.108-19.807-8.539-3.801-4.453-5.809-11.251-5.809-21.968 0-13.258 3.051-20.565 8.969-24.888 6.271-4.577 16.631-6.536 33.178-6.536 16.545 0 26.906 1.958 33.178 6.536 5.92 4.323 8.97 11.63 8.97 24.888 0 12.108-3.388 19.463-8.539 23.887-5.267 4.517-13.067 6.589-23.136 6.589h-1.049l-.889.554zM93.247 126.282v15.555"/>
  <g stroke="#243659" stroke-miterlimit="10" stroke-width="4">
    <circle cx="203.441" cy="181.315" r="22.653" fill="#4F96EB"/>
    <path fill="#FF7377" d="M125.584 160.186h42.259v42.259h-42.259z"/>
    <path fill="#B9EBBC" d="M233.914 201.095l25.359-39.56 25.361 39.56z"/>
  </g>
  <path fill="#FFF" d="M301.779 250.333h-1.234c-11.842 0-21.018-2.438-27.211-7.75-6.062-5.203-10.045-13.854-10.045-28.096 0-15.595 3.588-24.189 10.55-29.274 7.376-5.384 19.562-7.688 39.024-7.688 19.461 0 31.647 2.304 39.022 7.688 6.961 5.085 10.55 13.682 10.55 29.274 0 12.605-2.36 20.602-6.832 25.839-4.445 5.212-11.664 8.49-23.298 10.044l-4.3.577.602 4.294 1.807 12.907-27.592-17.163-1.043-.652z"/>
  <path fill="none" stroke="#243659" stroke-miterlimit="10" stroke-width="4" d="M312.188 248.485h-1.231c-11.842 0-21.021-2.438-27.212-7.75-6.062-5.203-10.045-13.854-10.045-28.096 0-15.596 3.587-24.188 10.55-29.274 7.375-5.385 19.562-7.688 39.022-7.688 19.463 0 31.648 2.303 39.024 7.688 6.961 5.086 10.55 13.68 10.55 29.274 0 12.605-2.361 20.603-6.832 25.839-4.447 5.211-11.666 8.49-23.297 10.045l-4.301.576.6 4.293 1.808 12.907-27.591-17.162-1.045-.652zM316.971 186.257v29.075M172.3 222.837h65.618M130.363 264.105l-9.558 42.175h-8.08l9.558-42.175M289.545 255.285l11.557 50.995h-8.893l-11.557-50.995M100.333 234.883H0M391 234.883h-24.01M54.998 7.825h89.334v25.261H54.998zM17.665 42.935h126.667v25.261H17.665zM144.332 20.455h16.667v120.626M144.332 55.565h16.667"/>
  <path fill="#FFF" d="M246.323 319.123H372.99v25.262H246.323z"/>
  <path fill="none" stroke="#243659" stroke-miterlimit="10" stroke-width="4" d="M240.323 324.869h-16.667v-85.631M240.323 312.123H366.99v25.262H240.323z"/>
  <path fill="none" stroke="#FF7377" stroke-miterlimit="10" stroke-width="4" d="M28.667 55.565H97"/>
  <path fill="none" stroke="#B9EBBC" stroke-miterlimit="10" stroke-width="4" d="M66.167 20.886H134.5"/>
</svg>
