<svg xmlns="http://www.w3.org/2000/svg" width="401.824" height="358.825" viewBox="0 0 401.824 358.825">
  <path fill="#FFF" d="M226.248 56.029L114.124 84.568 2 56.029v237.57l112.032 38.12v.063l.105-.028.079.028v-.048l112.032-28.517 112.216 28.565V94.211z"/>
  <path fill="#EBF4FF" d="M114.032 331.782l112.216-28.565V56.029L114.032 84.592z"/>
  <path fill="none" stroke="#243659" stroke-miterlimit="10" stroke-width="4" d="M226.248 56.029L114.124 84.568 2 56.029v237.57l112.032 38.12v.063l.105-.028.079.028v-.048l112.032-28.517 112.216 28.565V94.211zM114.124 84.568v85.61M226.248 56.029v134.029M226.248 209.616v35.592"/>
  <path fill="#FFF" d="M316.498 127.196l41.894-24.187 41.895 24.187v48.376l-41.895 24.186-41.894-24.186z"/>
  <path fill="none" stroke="#243659" stroke-miterlimit="10" stroke-width="4" d="M306.498 109.196l41.894-24.187 41.895 24.187v48.376l-41.895 24.186-41.894-24.186zM390.287 172.343l-41.895 24.187M227.457 110.896L89.645 258.606 62.068 231.03 209.072 92.512"/>
  <path fill="#FFF" stroke="#243659" stroke-miterlimit="10" stroke-width="4" d="M278.337 98.223c.979-19.8-10.488-30.64-10.488-30.64L232.97 32.704l-30.596 30.595L237.376 98.3l.096-.096 3.721 3.72c16.588 16.587 20.652 34.678 20.652 34.678l9.875-4.764s5.635-13.816 6.617-33.615z"/>
  <path fill="#FFF1E3" stroke="#243659" stroke-miterlimit="10" stroke-width="4" d="M89.645 238.606L62.068 211.03 210.33 71.254l18.384 18.385z"/>
  <path fill="#FFF1E3" stroke="#243659" stroke-miterlimit="10" stroke-width="4" d="M89.645 238.606L62.068 211.03 210.33 71.254l18.384 18.385z"/>
  <path fill="#F5D2C4" d="M89.645 238.606l-13.798-14.762L224.108 84.068l4.606 5.571z"/>
  <path fill="#FF7377" d="M89.645 238.606L62.068 211.03l67.938-64.051 23.521 23.199z"/>
  <path fill="#CC5D60" d="M89.645 238.606l-14.058-14.502 67.796-63.931 10.144 10.005z"/>
  <path fill="none" stroke="#243659" stroke-miterlimit="10" stroke-width="4" d="M89.645 238.606L62.068 211.03 210.33 71.254l18.384 18.385z"/>
  <path fill="#FFF" stroke="#243659" stroke-miterlimit="10" stroke-width="3.99996" d="M191.5906774 52.5147662l-19.0917-19.0917 30.5948028-30.5948028 19.0917 19.0917z"/>
  <path fill="#CED8E3" stroke="#243659" stroke-miterlimit="10" stroke-width="4" d="M191.994 52.111c5.81-5.81 10.812-5.983 13.789-3.005s2.805 7.98-3.004 13.789l29.786-29.788c-5.81 5.809-10.812 5.983-13.789 3.006-2.978-2.979-2.804-7.98 3.007-13.789l-29.789 29.787z"/>
  <path fill="#CED8E3" d="M237.046 97.777l30.803-30.194s11.469 10.84 10.488 30.64c-.981 19.799-6.617 33.615-6.617 33.615l-9.875 4.764s-4.064-18.091-20.652-34.678l-4.147-4.147z"/>
  <path fill="none" stroke="#243659" stroke-miterlimit="10" stroke-width="4" d="M278.337 98.223c.979-19.8-10.488-30.64-10.488-30.64L232.97 32.704l-30.596 30.595L237.376 98.3l.096-.096 3.721 3.72c16.588 16.587 20.652 34.678 20.652 34.678l9.875-4.764s5.635-13.816 6.617-33.615z"/>
  <path fill="#FFF" d="M45.21 56.112L69.377 42.16l24.166 13.952v27.906L69.377 97.97 45.21 84.018z"/>
  <path fill="none" stroke="#243659" stroke-miterlimit="10" stroke-width="4" d="M39.442 45.729l24.166-13.952 24.166 13.952v27.906L63.608 87.586 39.442 73.635zM56.974 12.137l51.745 29.875"/>
  <path fill="#FFF" d="M87.737 290.075l33.971-19.614 33.971 19.614v39.226l-33.971 19.614-33.971-19.614z"/>
  <path fill="none" stroke="#243659" stroke-miterlimit="10" stroke-width="4" d="M75.048 297.676l33.971-19.613 33.971 19.613v39.227l-33.971 19.614-33.971-19.614z"/>
  <g>
    <path fill="#316AB0" stroke="#243659" stroke-miterlimit="10" stroke-width="4" d="M324.99 245.692c-3.674 3.674-5.211 1.834-7.294-.25-2.084-2.084-3.925-3.62-.25-7.295l-18.84 18.841c3.674-3.675 5.657-2.28 7.741-.197 2.083 2.083 3.477 4.066-.197 7.74l18.84-18.839z"/>
    <path fill="#4F96EB" stroke="#243659" stroke-miterlimit="10" stroke-width="4" d="M323.25 247.012c3.057-3.057 8.011-3.057 11.066 0l63.781 63.78c3.056 3.057 3.057 8.011 0 11.066l-15.779 15.779c-3.056 3.057-8.012 3.057-11.067 0l-63.78-63.779c-3.057-3.057-3.057-8.012 0-11.068l15.779-15.778zM308.119 220.815s2.479 2.479 5.534 5.533l2.263 2.263c3.055 3.056 3.057 8.011 0 11.067l-15.779 15.779c-3.057 3.056-8.012 3.056-11.068 0l-2.262-2.262c-3.056-3.057-5.533-5.534-5.533-5.534l26.845-26.846z"/>
    <g fill="#316AB0">
      <path d="M319.723 268.919c1.648-1.648 4.321-1.648 5.97 0l50.498 50.498c1.648 1.648 1.647 4.32-.001 5.969-1.647 1.648-4.319 1.648-5.968 0l-50.498-50.498c-1.648-1.648-1.649-4.32-.001-5.969zM329.377 259.265c1.647-1.647 4.321-1.647 5.969.001l50.498 50.498c1.648 1.647 1.647 4.321 0 5.968-1.648 1.648-4.32 1.649-5.969.001l-50.498-50.498c-1.648-1.648-1.648-4.321 0-5.97z"/>
    </g>
    <path fill="#FFF" d="M290.3964633 238.5363425l-30.4816668-30.4816668 8.5884366-8.5884366 30.4816668 30.4816668z"/>
    <path fill="#FFF" d="M268.508 199.461l-7.993-13.322-13.918 13.918 13.322 7.994z"/>
    <path fill="#CED8E3" d="M241.197 172.15l19.318 13.989-13.918 13.918-13.99-19.318z"/>
    <path fill="none" stroke="#243659" stroke-miterlimit="10" stroke-width="4" d="M246.597 200.057l13.322 7.994 30.483 30.482 8.588-8.589-30.482-30.483-7.993-13.322-19.318-13.989-8.59 8.589z"/>
  </g>
  <path fill="none" stroke="#243659" stroke-miterlimit="10" stroke-width="4" d="M338.464 123.043v37.13"/>
</svg>
